<svg width="91" height="77" version="1.1" xmlns="http://www.w3.org/2000/svg" desc="Created with imagetracer.js version 1.2.6" ><path fill="rgb(221,220,250)" stroke="rgb(221,220,250)" stroke-width="1" opacity="1" d="M 14.5 36 Q 24.5 43.5 38.5 47 L 49 43 L 49 56.5 L 46.5 57 L 37.5 61 L 27.5 57 L 26 57.5 L 26.5 56 L 15 49.5 L 15 37.5 L 14.5 36 Z M 38 49 L 37 60 L 38 60 L 38 49 Z " /><path fill="rgb(254,254,254)" stroke="rgb(254,254,254)" stroke-width="1" opacity="1" d="M 76.5 29 L 77.5 31 L 76.5 29 Z " /><path fill="rgb(254,254,254)" stroke="rgb(254,254,254)" stroke-width="1" opacity="1" d="M 26.5 32 L 47 41.5 L 39.5 45 L 35.5 45 L 17 36.5 L 26.5 32 Z " /><path fill="rgb(254,254,254)" stroke="rgb(254,254,254)" stroke-width="1" opacity="1" d="M 14.5 51 L 15.5 53 L 14.5 51 Z " /><path fill="rgb(188,228,204)" stroke="rgb(188,228,204)" stroke-width="1" opacity="1" d="M 36.5 60 L 35.5 62 L 36.5 60 Z " /><path fill="rgb(176,252,200)" stroke="rgb(176,252,200)" stroke-width="1" opacity="1" d="M 54.5 21 L 75 30 Q 76.1 32.7 73.5 32 L 49.5 41 L 30 31.5 L 54.5 21 Z " /><path fill="rgb(169,169,187)" stroke="rgb(169,169,187)" stroke-width="1" opacity="1" d="M 15.5 35 L 16.5 37 L 15.5 35 Z " /><path fill="rgb(169,169,187)" stroke="rgb(169,169,187)" stroke-width="1" opacity="1" d="M 49.5 44 L 50 55.5 L 49 55.5 L 49.5 44 Z " /><path fill="rgb(169,169,187)" stroke="rgb(169,169,187)" stroke-width="1" opacity="1" d="M 36 45 L 39 46.5 L 36 47 L 36 45 Z " /><path fill="rgb(169,169,187)" stroke="rgb(169,169,187)" stroke-width="1" opacity="1" d="M 37.5 59 L 39 61.5 L 38 61.5 L 37.5 59 Z " /><path fill="rgb(98,123,115)" stroke="rgb(98,123,115)" stroke-width="1" opacity="1" d="M 54.5 20 L 58 21.5 L 56.5 22 L 54.5 20 Z " /><path fill="rgb(98,123,115)" stroke="rgb(98,123,115)" stroke-width="1" opacity="1" d="M 48.5 22 L 50 22.5 L 46.5 24 L 46.5 23 L 48.5 22 Z " /><path fill="rgb(98,123,115)" stroke="rgb(98,123,115)" stroke-width="1" opacity="1" d="M 61.5 23 L 69 26.5 L 67.5 27 L 61.5 24 L 61.5 23 Z " /><path fill="rgb(98,123,115)" stroke="rgb(98,123,115)" stroke-width="1" opacity="1" d="M 43.5 24 L 45 24.5 L 41.5 26 L 41.5 25 L 43.5 24 Z " /><path fill="rgb(98,123,115)" stroke="rgb(98,123,115)" stroke-width="1" opacity="1" d="M 38.5 26 L 40 26.5 L 33.5 29 L 33.5 28 L 38.5 26 Z " /><path fill="rgb(98,123,115)" stroke="rgb(98,123,115)" stroke-width="1" opacity="1" d="M 70.5 27 L 78 31.5 L 78 44.5 L 74.5 48 L 70.5 49 L 70.5 48 Q 75.3 47.8 77 44.5 L 77 31.5 L 75.5 30 L 70.5 28 L 70.5 27 Z " /><path fill="rgb(98,123,115)" stroke="rgb(98,123,115)" stroke-width="1" opacity="1" d="M 30.5 29 L 32 29.5 L 29 31.5 L 33 33.5 L 31.5 34 L 25 31.5 L 30.5 29 Z " /><path fill="rgb(98,123,115)" stroke="rgb(98,123,115)" stroke-width="1" opacity="1" d="M 69.5 33 L 72 33.5 L 54.5 40 L 54.5 39 L 69.5 33 Z " /><path fill="rgb(98,123,115)" stroke="rgb(98,123,115)" stroke-width="1" opacity="1" d="M 17.5 34 L 19 34.5 L 16 36.5 L 18 37.5 L 16.5 38 L 15 37.5 L 15 50.5 L 16.5 52 L 20 53.5 L 18.5 54 L 14 50.5 L 14 37.5 L 17.5 34 Z " /><path fill="rgb(98,123,115)" stroke="rgb(98,123,115)" stroke-width="1" opacity="1" d="M 34.5 34 L 42 37.5 L 40.5 38 L 34.5 35 L 34.5 34 Z " /><path fill="rgb(98,123,115)" stroke="rgb(98,123,115)" stroke-width="1" opacity="1" d="M 19.5 38 L 27 41.5 L 25.5 42 L 19.5 39 L 19.5 38 Z " /><path fill="rgb(98,123,115)" stroke="rgb(98,123,115)" stroke-width="1" opacity="1" d="M 43.5 38 L 50 42.5 L 51 44.5 L 51 57 L 47.5 58 L 47.5 57 L 50 55.5 L 50 44.5 L 48.5 42 L 44.5 44 L 44.5 43 L 48 41.5 L 43.5 39 L 43.5 38 Z " /><path fill="rgb(98,123,115)" stroke="rgb(98,123,115)" stroke-width="1" opacity="1" d="M 30.5 43 L 36 45.5 L 34.5 46 L 30.5 44 L 30.5 43 Z " /><path fill="rgb(98,123,115)" stroke="rgb(98,123,115)" stroke-width="1" opacity="1" d="M 41.5 44 L 43 44.5 L 38.5 46 L 38.5 45 L 41.5 44 Z " /><path fill="rgb(98,123,115)" stroke="rgb(98,123,115)" stroke-width="1" opacity="1" d="M 37.5 49 L 38 58.5 L 37 58.5 L 37.5 49 Z " /><path fill="rgb(98,123,115)" stroke="rgb(98,123,115)" stroke-width="1" opacity="1" d="M 67.5 49 L 69 49.5 L 52.5 56 L 52.5 55 L 67.5 49 Z " /><path fill="rgb(98,123,115)" stroke="rgb(98,123,115)" stroke-width="1" opacity="1" d="M 25.5 56 L 31 58.5 L 29.5 59 L 25.5 57 L 25.5 56 Z " /><path fill="rgb(98,123,115)" stroke="rgb(98,123,115)" stroke-width="1" opacity="1" d="M 44.5 58 L 46 58.5 L 42.5 60 L 42.5 59 L 44.5 58 Z " /><path fill="rgb(98,123,115)" stroke="rgb(98,123,115)" stroke-width="1" opacity="1" d="M 34.5 60 L 38 61.5 L 36.5 62 L 34.5 60 Z " /><path fill="rgb(127,228,180)" stroke="rgb(127,228,180)" stroke-width="1" opacity="1" d="M 30.5 30 L 29.5 32 L 30.5 30 Z " /><path fill="rgb(127,228,180)" stroke="rgb(127,228,180)" stroke-width="1" opacity="1" d="M 75.5 30 L 77 31.5 L 77 44.5 L 74.5 47 L 51.5 56 L 51 44.5 L 48 40.5 L 49.5 41 L 53.5 39 L 56.5 40 L 59 38.5 L 58.5 37 L 61.5 38 L 64 36.5 L 63.5 35 L 66.5 36 L 66.5 34 L 68.5 35 L 75 32 L 75.5 30 Z " /></svg>