<svg width="278" height="266" version="1.1" xmlns="http://www.w3.org/2000/svg" desc="Created with imagetracer.js version 1.2.6" ><path fill="rgb(202,201,216)" stroke="rgb(202,201,216)" stroke-width="1" opacity="1" d="M 36.5 27 L 70 27.5 L 36.5 28 L 36.5 27 Z " /><path fill="rgb(202,201,216)" stroke="rgb(202,201,216)" stroke-width="1" opacity="1" d="M 210.5 27 L 244 27.5 L 210.5 28 L 210.5 27 Z " /><path fill="rgb(202,201,216)" stroke="rgb(202,201,216)" stroke-width="1" opacity="1" d="M 33.5 30 L 34 62.5 L 33 62.5 L 33.5 30 Z " /><path fill="rgb(202,201,216)" stroke="rgb(202,201,216)" stroke-width="1" opacity="1" d="M 246.5 30 L 247 63.5 L 244 65.5 L 246 63.5 L 246.5 30 Z " /><path fill="rgb(202,201,216)" stroke="rgb(202,201,216)" stroke-width="1" opacity="1" d="M 41.5 34 L 65 34.5 L 41.5 35 L 41.5 34 Z " /><path fill="rgb(202,201,216)" stroke="rgb(202,201,216)" stroke-width="1" opacity="1" d="M 215.5 34 L 239 34.5 L 215.5 35 L 215.5 34 Z " /><path fill="rgb(202,201,216)" stroke="rgb(202,201,216)" stroke-width="1" opacity="1" d="M 72.5 42 L 208 42.5 L 72.5 43 L 72.5 42 Z " /><path fill="rgb(202,201,216)" stroke="rgb(202,201,216)" stroke-width="1" opacity="1" d="M 34.5 64 L 35.5 66 L 34.5 64 Z " /><path fill="rgb(202,201,216)" stroke="rgb(202,201,216)" stroke-width="1" opacity="1" d="M 71.5 64 L 70.5 66 L 71.5 64 Z " /><path fill="rgb(202,201,216)" stroke="rgb(202,201,216)" stroke-width="1" opacity="1" d="M 208.5 64 L 209.5 66 L 208.5 64 Z " /><path fill="rgb(202,201,216)" stroke="rgb(202,201,216)" stroke-width="1" opacity="1" d="M 49.5 66 L 50 201.5 L 48.5 203 L 36.5 203 L 36.5 202 L 48.5 202 L 49 201.5 L 49.5 66 Z " /><path fill="rgb(202,201,216)" stroke="rgb(202,201,216)" stroke-width="1" opacity="1" d="M 56.5 66 L 57 202 L 70 202.5 L 56 203 L 56.5 66 Z " /><path fill="rgb(202,201,216)" stroke="rgb(202,201,216)" stroke-width="1" opacity="1" d="M 224.5 66 L 225 203 L 210 202.5 L 224 202 L 224.5 66 Z " /><path fill="rgb(202,201,216)" stroke="rgb(202,201,216)" stroke-width="1" opacity="1" d="M 99.5 95 L 100 172.5 L 99 172.5 L 99.5 95 Z " /><path fill="rgb(202,201,216)" stroke="rgb(202,201,216)" stroke-width="1" opacity="1" d="M 181.5 95 L 182 98.5 L 181 98.5 L 181.5 95 Z " /><path fill="rgb(202,201,216)" stroke="rgb(202,201,216)" stroke-width="1" opacity="1" d="M 106.5 100 L 107 167.5 L 106 167.5 L 106.5 100 Z " /><path fill="rgb(202,201,216)" stroke="rgb(202,201,216)" stroke-width="1" opacity="1" d="M 174.5 100 L 175 167.5 L 174 167.5 L 174.5 100 Z " /><path fill="rgb(202,201,216)" stroke="rgb(202,201,216)" stroke-width="1" opacity="1" d="M 181.5 170 L 182 172.5 L 181 172.5 L 181.5 170 Z " /><path fill="rgb(202,201,216)" stroke="rgb(202,201,216)" stroke-width="1" opacity="1" d="M 232.5 202 L 244 202.5 L 232.5 203 L 232.5 202 Z " /><path fill="rgb(202,201,216)" stroke="rgb(202,201,216)" stroke-width="1" opacity="1" d="M 33.5 205 L 34 237.5 L 33 237.5 L 33.5 205 Z " /><path fill="rgb(202,201,216)" stroke="rgb(202,201,216)" stroke-width="1" opacity="1" d="M 246.5 205 L 247 237.5 L 246 237.5 L 246.5 205 Z " /><path fill="rgb(202,201,216)" stroke="rgb(202,201,216)" stroke-width="1" opacity="1" d="M 41.5 209 L 65 209.5 L 41.5 210 L 41.5 209 Z " /><path fill="rgb(202,201,216)" stroke="rgb(202,201,216)" stroke-width="1" opacity="1" d="M 215.5 209 L 239 209.5 L 215.5 210 L 215.5 209 Z " /><path fill="rgb(202,201,216)" stroke="rgb(202,201,216)" stroke-width="1" opacity="1" d="M 72.5 225 L 208 225.5 L 72.5 226 L 72.5 225 Z " /><path fill="rgb(202,201,216)" stroke="rgb(202,201,216)" stroke-width="1" opacity="1" d="M 34.5 239 L 35.5 241 L 34.5 239 Z " /><path fill="rgb(202,201,216)" stroke="rgb(202,201,216)" stroke-width="1" opacity="1" d="M 71.5 239 L 70.5 241 L 71.5 239 Z " /><path fill="rgb(202,201,216)" stroke="rgb(202,201,216)" stroke-width="1" opacity="1" d="M 208.5 239 L 209.5 241 L 208.5 239 Z " /><path fill="rgb(202,201,216)" stroke="rgb(202,201,216)" stroke-width="1" opacity="1" d="M 245.5 239 L 244.5 241 L 245.5 239 Z " /><path fill="rgb(254,254,253)" stroke="rgb(254,254,253)" stroke-width="1" opacity="1" d="M 37.5 25 L 69 25.5 L 37.5 26 L 37.5 25 Z " /><path fill="rgb(254,254,253)" stroke="rgb(254,254,253)" stroke-width="1" opacity="1" d="M 206.5 25 L 209 26.5 Q 209.7 29.1 207 28 L 206.5 25 Z " /><path fill="rgb(254,254,253)" stroke="rgb(254,254,253)" stroke-width="1" opacity="1" d="M 211.5 25 L 243 25.5 Q 238.2 28.6 228.5 27 L 223.5 26 L 222.5 27 L 212.5 27 L 211.5 25 Z " /><path fill="rgb(254,254,253)" stroke="rgb(254,254,253)" stroke-width="1" opacity="1" d="M 71.5 26 L 75 28 L 74.5 30 L 71 28 L 71.5 26 Z " /><path fill="rgb(254,254,253)" stroke="rgb(254,254,253)" stroke-width="1" opacity="1" d="M 29.5 29 L 30.5 31 Q 27.7 31.7 29.5 29 Z " /><path fill="rgb(254,254,253)" stroke="rgb(254,254,253)" stroke-width="1" opacity="1" d="M 250.5 29 L 251 30.5 L 249 32.5 L 248.5 42 L 248 32.5 L 250.5 29 Z " /><path fill="rgb(254,254,253)" stroke="rgb(254,254,253)" stroke-width="1" opacity="1" d="M 32.5 30 L 33 42.5 L 32 43.5 L 31.5 58 L 31 37.5 L 32.5 30 Z " /><path fill="rgb(254,254,253)" stroke="rgb(254,254,253)" stroke-width="1" opacity="1" d="M 43.5 35 L 44 57 Q 48.5 55.3 56.5 56 Q 57.7 58.3 62.5 57 L 64 56.5 L 62.5 59 L 44.5 59 Q 45.1 56.3 42 57 L 42 37.5 L 43.5 35 Z " /><path fill="rgb(254,254,253)" stroke="rgb(254,254,253)" stroke-width="1" opacity="1" d="M 236.5 35 L 239 36.5 L 238 43 L 236 43 L 236 37 L 238 36.5 L 236.5 35 Z " /><path fill="rgb(254,254,253)" stroke="rgb(254,254,253)" stroke-width="1" opacity="1" d="M 73.5 52 L 79 53.5 L 75.5 54 L 73.5 52 Z " /><path fill="rgb(254,254,253)" stroke="rgb(254,254,253)" stroke-width="1" opacity="1" d="M 206.5 57 L 207 62.5 L 206 62.5 L 205 60.5 L 206.5 57 Z " /><path fill="rgb(254,254,253)" stroke="rgb(254,254,253)" stroke-width="1" opacity="1" d="M 73.5 58 L 75 60.5 L 73.5 63 L 73.5 58 Z " /><path fill="rgb(254,254,253)" stroke="rgb(254,254,253)" stroke-width="1" opacity="1" d="M 222.5 58 L 236 58.5 L 222.5 59 L 222.5 58 Z " /><path fill="rgb(254,254,253)" stroke="rgb(254,254,253)" stroke-width="1" opacity="1" d="M 31.5 62 L 33 64.5 L 31 65 L 31.5 62 Z " /><path fill="rgb(254,254,253)" stroke="rgb(254,254,253)" stroke-width="1" opacity="1" d="M 247.5 64 L 246.5 66 L 247.5 64 Z " /><path fill="rgb(254,254,253)" stroke="rgb(254,254,253)" stroke-width="1" opacity="1" d="M 37 66 L 48.5 66 L 49 67.5 Q 47.8 70.3 46.5 68 L 37.5 68 L 37 66 Z " /><path fill="rgb(254,254,253)" stroke="rgb(254,254,253)" stroke-width="1" opacity="1" d="M 60.5 66 L 64 66.5 L 57.5 68 L 57.5 67 L 60.5 66 Z " /><path fill="rgb(254,254,253)" stroke="rgb(254,254,253)" stroke-width="1" opacity="1" d="M 65.5 66 L 69 66.5 L 65.5 67 L 65.5 66 Z " /><path fill="rgb(254,254,253)" stroke="rgb(254,254,253)" stroke-width="1" opacity="1" d="M 209.5 66 L 211.5 66 L 215 66.5 L 209 68 L 209.5 66 Z " /><path fill="rgb(254,254,253)" stroke="rgb(254,254,253)" stroke-width="1" opacity="1" d="M 239.5 66 L 241.5 67 L 243 66.5 L 240.5 68 L 238.5 68 L 234 68 L 234 77 Q 241.5 74.5 239 82 L 234 82.5 L 234 200.5 L 233 200.5 L 233 67.5 Q 233.1 66.4 238.5 67 L 239.5 66 Z " /><path fill="rgb(254,254,253)" stroke="rgb(254,254,253)" stroke-width="1" opacity="1" d="M 222 68 L 224 68.5 L 222 69.5 L 222 68 Z " /><path fill="rgb(254,254,253)" stroke="rgb(254,254,253)" stroke-width="1" opacity="1" d="M 58.5 70 L 63 70.5 L 58.5 71 L 58.5 70 Z " /><path fill="rgb(254,254,253)" stroke="rgb(254,254,253)" stroke-width="1" opacity="1" d="M 223.5 71 L 224 82.5 L 223 82.5 L 223.5 71 Z " /><path fill="rgb(254,254,253)" stroke="rgb(254,254,253)" stroke-width="1" opacity="1" d="M 64 77 Q 71.5 74.5 69 82 Q 61.5 84.5 64 77 Z " /><path fill="rgb(254,254,253)" stroke="rgb(254,254,253)" stroke-width="1" opacity="1" d="M 101.5 88 L 104 88 L 104.5 90 L 113.5 90 L 113.5 91 Q 102.9 92.9 101.5 88 Z " /><path fill="rgb(254,254,253)" stroke="rgb(254,254,253)" stroke-width="1" opacity="1" d="M 180.5 88 Q 183.9 87.1 182 92.5 L 180.5 92 L 176 90.5 L 180.5 88 Z " /><path fill="rgb(254,254,253)" stroke="rgb(254,254,253)" stroke-width="1" opacity="1" d="M 121 90 Q 126.2 88.3 125 92 Q 119.8 93.7 121 90 Z " /><path fill="rgb(254,254,253)" stroke="rgb(254,254,253)" stroke-width="1" opacity="1" d="M 132 90 L 137 90 L 137 92 L 132 92 L 132 90 Z " /><path fill="rgb(254,254,253)" stroke="rgb(254,254,253)" stroke-width="1" opacity="1" d="M 143 90 L 148 90 L 148 92 L 143 92 L 143 90 Z " /><path fill="rgb(254,254,253)" stroke="rgb(254,254,253)" stroke-width="1" opacity="1" d="M 155 90 Q 160.2 88.3 159 92 Q 153.8 93.7 155 90 Z " /><path fill="rgb(254,254,253)" stroke="rgb(254,254,253)" stroke-width="1" opacity="1" d="M 166 90 L 171 90 L 171 92 L 166 92 L 166 90 Z " /><path fill="rgb(254,254,253)" stroke="rgb(254,254,253)" stroke-width="1" opacity="1" d="M 97 92 L 99 92.5 L 97.5 96 L 97 92 Z " /><path fill="rgb(254,254,253)" stroke="rgb(254,254,253)" stroke-width="1" opacity="1" d="M 103.5 92 L 120 92.5 L 103.5 93 L 103.5 92 Z " /><path fill="rgb(254,254,253)" stroke="rgb(254,254,253)" stroke-width="1" opacity="1" d="M 182 99 L 185 99.5 L 185 173 L 183 173 Q 184.5 176.8 181.5 176 L 180 179 L 166.5 178 Q 165.3 180.3 160.5 179 L 159.5 178 L 149.5 178 Q 148.3 180.3 143.5 179 L 142.5 178 L 105.5 178 L 102.5 177 L 100 178 L 99.5 176 L 97.5 177 L 97.5 176 Q 99.8 176.8 99 174.5 L 100 174.5 L 100.5 176 L 108.5 176 L 109.5 177 L 142.5 177 Q 143.8 174.8 148.5 176 L 149.5 177 L 159.5 177 Q 160.8 174.8 165.5 176 L 170.5 177 L 175.5 176 L 177.5 177 L 182 175 L 183 171.5 L 182 170.5 L 182 99 Z " /><path fill="rgb(254,254,253)" stroke="rgb(254,254,253)" stroke-width="1" opacity="1" d="M 223.5 99 L 224 105.5 L 223 105.5 L 223.5 99 Z " /><path fill="rgb(254,254,253)" stroke="rgb(254,254,253)" stroke-width="1" opacity="1" d="M 109.5 100 L 174 100.5 L 171 101.5 L 173 102.5 L 171.5 103 L 170.5 102 L 149.5 102 Q 148.3 104.3 143.5 103 L 142.5 102 L 109.5 101 L 109.5 100 Z " /><path fill="rgb(254,254,253)" stroke="rgb(254,254,253)" stroke-width="1" opacity="1" d="M 108.5 102 L 109 104 L 119 104.5 L 109.5 105 L 108.5 102 Z " /><path fill="rgb(254,254,253)" stroke="rgb(254,254,253)" stroke-width="1" opacity="1" d="M 108.5 111 L 109 166.5 L 108 166.5 L 108.5 111 Z " /><path fill="rgb(254,254,253)" stroke="rgb(254,254,253)" stroke-width="1" opacity="1" d="M 223.5 121 L 224 127.5 L 223 127.5 L 223.5 121 Z " /><path fill="rgb(254,254,253)" stroke="rgb(254,254,253)" stroke-width="1" opacity="1" d="M 223.5 144 L 224 150.5 L 223 150.5 L 223.5 144 Z " /><path fill="rgb(254,254,253)" stroke="rgb(254,254,253)" stroke-width="1" opacity="1" d="M 223.5 167 L 224 173.5 L 223 173.5 L 223.5 167 Z " /><path fill="rgb(254,254,253)" stroke="rgb(254,254,253)" stroke-width="1" opacity="1" d="M 222.5 196 L 224 199.5 L 223 202 L 214 201.5 L 222 201 L 222.5 196 Z " /><path fill="rgb(254,254,253)" stroke="rgb(254,254,253)" stroke-width="1" opacity="1" d="M 35.5 200 Q 38.8 198.9 38 201.5 L 36.5 201 L 35.5 200 Z " /><path fill="rgb(254,254,253)" stroke="rgb(254,254,253)" stroke-width="1" opacity="1" d="M 46 200 L 49 200.5 L 46.5 202 L 46 200 Z " /><path fill="rgb(254,254,253)" stroke="rgb(254,254,253)" stroke-width="1" opacity="1" d="M 57.5 200 L 61 200.5 L 57.5 201 L 57.5 200 Z " /><path fill="rgb(254,254,253)" stroke="rgb(254,254,253)" stroke-width="1" opacity="1" d="M 236.5 200 L 244.5 200 L 245 202 Q 242.6 200.3 236.5 201 L 236.5 200 Z " /><path fill="rgb(254,254,253)" stroke="rgb(254,254,253)" stroke-width="1" opacity="1" d="M 70.5 201 L 73 202.5 L 74 204.5 L 72 203.5 Q 72.8 201.3 70.5 202 L 70.5 201 Z " /><path fill="rgb(254,254,253)" stroke="rgb(254,254,253)" stroke-width="1" opacity="1" d="M 248 201 Q 252.5 199.3 251 204.5 Q 247.5 206 250 207.5 L 248.5 218 L 247 210.5 L 247 208.5 L 248 205.5 L 247 203.5 L 248 201 Z " /><path fill="rgb(254,254,253)" stroke="rgb(254,254,253)" stroke-width="1" opacity="1" d="M 205.5 206 L 207 207.5 L 207 215.5 L 206.5 218 L 205.5 217 L 74.5 217 L 73 217.5 L 74.5 216 L 206 216 L 206 207.5 L 205.5 206 Z " /><path fill="rgb(254,254,253)" stroke="rgb(254,254,253)" stroke-width="1" opacity="1" d="M 58.5 211 Q 64.3 209.3 63 213 L 43 213 L 43 230.5 L 44 233 L 42 232.5 L 42 212 L 57.5 212 L 58.5 211 Z " /><path fill="rgb(254,254,253)" stroke="rgb(254,254,253)" stroke-width="1" opacity="1" d="M 75 212 L 83 213.5 L 75 215 L 75 212 Z " /><path fill="rgb(254,254,253)" stroke="rgb(254,254,253)" stroke-width="1" opacity="1" d="M 105 212 Q 109.1 210.7 108 214 Q 103.9 215.3 105 212 Z " /><path fill="rgb(254,254,253)" stroke="rgb(254,254,253)" stroke-width="1" opacity="1" d="M 217.5 212 L 239 212.5 L 237 213 L 236.5 223 L 236 213 L 217.5 213 L 217.5 212 Z " /><path fill="rgb(254,254,253)" stroke="rgb(254,254,253)" stroke-width="1" opacity="1" d="M 32.5 213 L 33 215.5 L 32 215.5 L 32.5 213 Z " /><path fill="rgb(254,254,253)" stroke="rgb(254,254,253)" stroke-width="1" opacity="1" d="M 216.5 214 L 217 219 Q 224.5 216.5 222 224 L 217 224 L 217 219.5 Q 214.7 218.1 216.5 214 Z " /><path fill="rgb(254,254,253)" stroke="rgb(254,254,253)" stroke-width="1" opacity="1" d="M 32.5 221 L 33 229.5 L 32 229.5 L 32.5 221 Z " /><path fill="rgb(254,254,253)" stroke="rgb(254,254,253)" stroke-width="1" opacity="1" d="M 86.5 226 L 205.5 226 L 206 229.5 Q 208.5 231 207 236.5 L 205 237.5 L 206 230.5 L 205 227 L 86.5 227 L 86.5 226 Z " /><path fill="rgb(254,254,253)" stroke="rgb(254,254,253)" stroke-width="1" opacity="1" d="M 248.5 236 L 249 238 Q 252 237 251 240 L 248.5 239 L 247.5 242 Q 246.2 239.8 245 242.5 L 244.5 246 L 241.5 244 L 223 243.5 L 240.5 243 L 248 238.5 L 248.5 236 Z " /><path fill="rgb(254,254,253)" stroke="rgb(254,254,253)" stroke-width="1" opacity="1" d="M 73.5 238 L 74.5 240 L 73.5 238 Z " /><path fill="rgb(254,254,253)" stroke="rgb(254,254,253)" stroke-width="1" opacity="1" d="M 32.5 239 L 34.5 242 L 32.5 239 Z " /><path fill="rgb(254,254,253)" stroke="rgb(254,254,253)" stroke-width="1" opacity="1" d="M 205 239 Q 208.7 237.5 208 240.5 L 208.5 242 L 205 241 L 205 239 Z " /><path fill="rgb(254,254,253)" stroke="rgb(254,254,253)" stroke-width="1" opacity="1" d="M 70.5 241 L 70.5 243 L 72 243.5 L 69.5 245 L 69.5 243 L 41.5 244 L 37 242.5 L 40.5 242 L 41.5 243 L 51.5 243 L 52.5 242 L 69.5 242 L 70.5 241 Z " /><path fill="rgb(254,254,253)" stroke="rgb(254,254,253)" stroke-width="1" opacity="1" d="M 210.5 242 L 222 242.5 L 210.5 243 L 210.5 242 Z " /><path fill="rgb(252,253,254)" stroke="rgb(252,253,254)" stroke-width="1" opacity="1" d="M 35 26 L 37 26.5 L 35 27.5 L 35 26 Z " /><path fill="rgb(252,253,254)" stroke="rgb(252,253,254)" stroke-width="1" opacity="1" d="M 209 26 L 211 26.5 L 208 28.5 L 209 26 Z " /><path fill="rgb(252,253,254)" stroke="rgb(252,253,254)" stroke-width="1" opacity="1" d="M 243.5 26 Q 245.8 25.3 245 27.5 L 243.5 26 Z " /><path fill="rgb(252,253,254)" stroke="rgb(252,253,254)" stroke-width="1" opacity="1" d="M 33.5 28 L 34 30 L 32 29.5 L 33.5 28 Z " /><path fill="rgb(252,253,254)" stroke="rgb(252,253,254)" stroke-width="1" opacity="1" d="M 72.5 30 L 73 41 L 206.5 41 L 207 40.5 L 207 30.5 L 208 30.5 L 208 41.5 L 207.5 42 L 72 42 L 72.5 30 Z " /><path fill="rgb(252,253,254)" stroke="rgb(252,253,254)" stroke-width="1" opacity="1" d="M 247.5 31 L 248 63.5 L 247 63.5 L 247.5 31 Z " /><path fill="rgb(252,253,254)" stroke="rgb(252,253,254)" stroke-width="1" opacity="1" d="M 41 35 Q 43.7 33.9 43 36.5 L 42 37.5 L 42 58 L 44 58.5 L 41 59 L 41 35 Z " /><path fill="rgb(252,253,254)" stroke="rgb(252,253,254)" stroke-width="1" opacity="1" d="M 44.5 35 L 58 35.5 L 44.5 36 L 44.5 35 Z " /><path fill="rgb(252,253,254)" stroke="rgb(252,253,254)" stroke-width="1" opacity="1" d="M 60.5 35 Q 65 34.5 65 35.5 L 65 59 L 63 58.5 L 64 56.5 L 63 55.5 L 63 36 Q 59.7 36.8 60.5 35 Z " /><path fill="rgb(252,253,254)" stroke="rgb(252,253,254)" stroke-width="1" opacity="1" d="M 215 35 L 220 35.5 L 217 36 L 217 58.5 L 215 59 L 215 35 Z " /><path fill="rgb(252,253,254)" stroke="rgb(252,253,254)" stroke-width="1" opacity="1" d="M 222.5 35 L 236 35.5 L 222.5 36 L 222.5 35 Z " /><path fill="rgb(252,253,254)" stroke="rgb(252,253,254)" stroke-width="1" opacity="1" d="M 238.5 35 L 239 37.5 L 239 58.5 L 236.5 59 L 236.5 58 L 238 57.5 L 238 37.5 Q 235.8 36.3 238.5 35 Z " /><path fill="rgb(252,253,254)" stroke="rgb(252,253,254)" stroke-width="1" opacity="1" d="M 32.5 43 L 33 61.5 L 32 61.5 L 32.5 43 Z " /><path fill="rgb(252,253,254)" stroke="rgb(252,253,254)" stroke-width="1" opacity="1" d="M 72 50 L 207.5 50 L 208 50.5 L 208 62.5 L 207 62.5 L 207 52.5 L 206.5 52 L 73 52 L 72.5 63 L 72 50 Z " /><path fill="rgb(252,253,254)" stroke="rgb(252,253,254)" stroke-width="1" opacity="1" d="M 218.5 58 L 222 58.5 L 218.5 59 L 218.5 58 Z " /><path fill="rgb(252,253,254)" stroke="rgb(252,253,254)" stroke-width="1" opacity="1" d="M 34.5 65 L 37 66 L 36.5 68 L 34.5 65 Z " /><path fill="rgb(252,253,254)" stroke="rgb(252,253,254)" stroke-width="1" opacity="1" d="M 71.5 65 L 72 67 L 70 66.5 L 71.5 65 Z " /><path fill="rgb(252,253,254)" stroke="rgb(252,253,254)" stroke-width="1" opacity="1" d="M 215.5 66 L 223.5 66 L 224 67.5 L 222.5 67 L 215.5 67 L 215.5 66 Z " /><path fill="rgb(252,253,254)" stroke="rgb(252,253,254)" stroke-width="1" opacity="1" d="M 232 66 L 234 66.5 L 233 67.5 L 233 201 L 243 201.5 L 232 202 L 232 66 Z " /><path fill="rgb(252,253,254)" stroke="rgb(252,253,254)" stroke-width="1" opacity="1" d="M 101.5 92 L 103 92.5 L 98.5 96 L 101.5 92 Z " /><path fill="rgb(252,253,254)" stroke="rgb(252,253,254)" stroke-width="1" opacity="1" d="M 120.5 92 L 177 92.5 L 120.5 93 L 120.5 92 Z " /><path fill="rgb(252,253,254)" stroke="rgb(252,253,254)" stroke-width="1" opacity="1" d="M 178.5 92 L 181 92.5 L 178.5 93 L 178.5 92 Z " /><path fill="rgb(252,253,254)" stroke="rgb(252,253,254)" stroke-width="1" opacity="1" d="M 107.5 100 Q 110.3 101.2 108 102.5 L 108 167 L 173.5 167 L 173.5 168 L 107 168 L 107.5 100 Z " /><path fill="rgb(252,253,254)" stroke="rgb(252,253,254)" stroke-width="1" opacity="1" d="M 182.5 171 L 183 172.5 L 181.5 175 L 181 173.5 L 182.5 171 Z " /><path fill="rgb(252,253,254)" stroke="rgb(252,253,254)" stroke-width="1" opacity="1" d="M 98.5 172 L 101.5 175 L 180 175.5 L 176.5 177 L 175.5 176 L 100 176 L 98.5 172 Z " /><path fill="rgb(252,253,254)" stroke="rgb(252,253,254)" stroke-width="1" opacity="1" d="M 223.5 190 L 224 198.5 L 223 198.5 L 223.5 190 Z " /><path fill="rgb(252,253,254)" stroke="rgb(252,253,254)" stroke-width="1" opacity="1" d="M 35 201 L 37 201.5 L 33 205.5 L 32.5 213 L 32 204.5 L 35 203 L 35 201 Z " /><path fill="rgb(252,253,254)" stroke="rgb(252,253,254)" stroke-width="1" opacity="1" d="M 57.5 201 L 69 201.5 L 57.5 202 L 57.5 201 Z " /><path fill="rgb(252,253,254)" stroke="rgb(252,253,254)" stroke-width="1" opacity="1" d="M 211.5 201 L 214 201.5 L 211.5 202 L 211.5 201 Z " /><path fill="rgb(252,253,254)" stroke="rgb(252,253,254)" stroke-width="1" opacity="1" d="M 70.5 202 Q 72.8 201.3 72 203.5 L 70.5 202 Z " /><path fill="rgb(252,253,254)" stroke="rgb(252,253,254)" stroke-width="1" opacity="1" d="M 244.5 202 L 247 203 L 248 206.5 L 247 206.5 L 244.5 202 Z " /><path fill="rgb(252,253,254)" stroke="rgb(252,253,254)" stroke-width="1" opacity="1" d="M 72.5 205 L 74 207.5 L 73 208.5 L 72.5 218 L 72.5 205 Z " /><path fill="rgb(252,253,254)" stroke="rgb(252,253,254)" stroke-width="1" opacity="1" d="M 207.5 205 L 208 217.5 L 207 217.5 L 207 207.5 L 206 206.5 L 207.5 205 Z " /><path fill="rgb(252,253,254)" stroke="rgb(252,253,254)" stroke-width="1" opacity="1" d="M 41.5 210 L 42.5 211 L 58 211.5 L 42 212 L 42 233 L 63 233 L 63 210.5 L 65 210 L 65 232.5 L 63.5 234 L 42.5 234 L 41 232.5 L 41.5 210 Z " /><path fill="rgb(252,253,254)" stroke="rgb(252,253,254)" stroke-width="1" opacity="1" d="M 215 210 L 217.5 211 L 239 211.5 L 217 212 L 216 218.5 L 217 219.5 L 217 233 L 237 233.5 L 217.5 234 L 215 233 L 215 210 Z " /><path fill="rgb(252,253,254)" stroke="rgb(252,253,254)" stroke-width="1" opacity="1" d="M 238.5 213 L 239 233.5 L 238 233.5 L 238.5 213 Z " /><path fill="rgb(252,253,254)" stroke="rgb(252,253,254)" stroke-width="1" opacity="1" d="M 247.5 213 L 248 235.5 L 247 235.5 L 247.5 213 Z " /><path fill="rgb(252,253,254)" stroke="rgb(252,253,254)" stroke-width="1" opacity="1" d="M 32.5 216 L 33 220.5 L 32 220.5 L 32.5 216 Z " /><path fill="rgb(252,253,254)" stroke="rgb(252,253,254)" stroke-width="1" opacity="1" d="M 72 226 L 74 226.5 L 73 227.5 L 73 236.5 Q 75.3 237.8 72.5 239 L 72 226 Z " /><path fill="rgb(252,253,254)" stroke="rgb(252,253,254)" stroke-width="1" opacity="1" d="M 207.5 226 L 208 239 Q 205.3 240.1 206 237.5 L 207 236.5 L 207.5 226 Z " /><path fill="rgb(252,253,254)" stroke="rgb(252,253,254)" stroke-width="1" opacity="1" d="M 32.5 230 L 33 235.5 L 32 235.5 L 32.5 230 Z " /><path fill="rgb(252,253,254)" stroke="rgb(252,253,254)" stroke-width="1" opacity="1" d="M 32.5 237 L 34 239.5 L 32 238.5 L 32.5 237 Z " /><path fill="rgb(252,253,254)" stroke="rgb(252,253,254)" stroke-width="1" opacity="1" d="M 247.5 237 L 248 238.5 L 246 239.5 L 247.5 237 Z " /><path fill="rgb(252,253,254)" stroke="rgb(252,253,254)" stroke-width="1" opacity="1" d="M 35.5 241 L 70 241.5 L 41.5 243 Q 40.3 240.8 35.5 242 L 35.5 241 Z " /><path fill="rgb(252,253,254)" stroke="rgb(252,253,254)" stroke-width="1" opacity="1" d="M 210.5 241 L 244 241.5 L 240.5 243 L 222.5 243 L 221.5 242 L 210.5 242 L 210.5 241 Z " /><path fill="rgb(255,255,255)" stroke="rgb(255,255,255)" stroke-width="1" opacity="1" d="M 0 0 L 278 0 L 278 266 L 0 266 L 0 0 Z M 38 25 L 38 26 L 69 26 L 38 25 Z M 207 25 L 208 29 Q 205 32 207 41 L 205 41 L 76 41 L 73 40 L 73 31 L 71 29 L 73 28 Q 72 25 71 27 L 38 27 L 37 26 L 34 28 L 32 30 Q 34 36 31 38 L 31 58 L 33 63 L 32 62 L 31 65 L 34 64 L 35 67 L 36 68 L 47 68 L 49 69 L 49 200 L 46 200 L 46 202 Q 40 203 38 200 Q 33 199 35 203 L 31 204 L 32 205 L 32 240 Q 33 242 35 240 L 34 242 L 42 244 L 70 243 L 73 241 L 72 240 L 74 239 L 73 235 L 75 235 L 73 234 Q 71 228 75 226 L 86 226 L 87 227 L 205 227 L 206 230 L 206 227 L 207 227 L 205 237 L 206 239 L 205 241 L 209 240 L 210 243 L 242 244 L 245 246 Q 244 240 249 239 L 251 240 L 251 238 Q 248 239 249 237 L 247 237 L 248 236 L 248 219 L 250 213 Q 251 208 249 207 Q 252 205 251 201 Q 247 200 248 203 Q 244 205 245 200 Q 237 199 234 201 L 234 83 L 239 82 Q 242 75 234 77 L 234 68 L 242 68 L 241 67 L 241 66 L 243 67 L 247 66 L 246 65 L 248 65 L 248 43 L 249 42 L 249 33 L 248 32 Q 249 28 246 29 L 245 26 L 243 27 L 240 27 L 243 26 L 212 25 L 212 27 L 207 25 Z M 74 28 L 75 30 Q 76 27 74 28 Z M 30 29 Q 28 32 31 31 L 30 29 Z M 251 29 L 249 32 L 251 31 L 251 29 Z " /><path fill="rgb(255,255,255)" stroke="rgb(255,255,255)" stroke-width="1" opacity="1" d="M 223.5 26 L 228 26.5 L 223.5 27 L 223.5 26 Z " /><path fill="rgb(255,255,255)" stroke="rgb(255,255,255)" stroke-width="1" opacity="1" d="M 44 36 L 63 36 L 63 57 L 48.5 56 L 42.5 58 L 42.5 57 L 44 56.5 L 44 36 Z " /><path fill="rgb(255,255,255)" stroke="rgb(255,255,255)" stroke-width="1" opacity="1" d="M 217 36 L 237 36.5 L 236 43 L 238 43.5 L 238 56.5 L 236.5 58 L 217 58 L 217 36 Z " /><path fill="rgb(255,255,255)" stroke="rgb(255,255,255)" stroke-width="1" opacity="1" d="M 75.5 52 L 206.5 52 Q 207.5 52 207 56.5 L 205 60.5 L 206 63 L 208 63.5 L 206 64.5 L 209 66.5 Q 208.3 68.8 210.5 68 L 210.5 66 L 216.5 68 Q 217.8 65.8 222.5 67 L 222 68.5 L 223 70.5 L 223 82.5 L 224 83.5 L 224 98.5 Q 221.5 100 223 105.5 L 224 106.5 L 224 120.5 Q 221.5 122 223 127.5 L 224 128.5 L 224 143.5 Q 221.5 145 223 150.5 L 224 151.5 L 224 166.5 Q 221.5 168 223 173.5 L 224 174.5 L 224 188.5 L 222 201 Q 213 199.9 208 202 L 206.5 206 L 205 206.5 L 207 216.5 L 205.5 218 L 74.5 218 Q 72 217 73 212.5 L 73 210.5 L 75 206.5 L 72 204.5 L 73 202.5 L 70.5 201 L 68.5 201 L 57 200 L 57 68.5 L 59.5 68 L 64.5 66 L 68.5 67 L 69.5 66 L 72 67.5 L 72 63 Q 74.7 64.1 74 61.5 L 74 59.5 L 73 53 L 75.5 52 Z M 76 53 L 76 54 L 79 54 L 76 53 Z M 59 70 L 59 71 L 63 71 L 59 70 Z M 64 77 Q 62 85 69 82 Q 72 75 64 77 Z M 102 88 L 104 90 Q 105 87 102 88 Z M 181 88 L 176 91 L 179 92 Q 178 94 177 92 Q 170 94 171 90 L 166 90 L 166 92 L 160 92 L 159 90 Q 154 88 155 92 L 149 92 L 148 90 L 143 90 L 143 92 L 137 92 L 137 90 L 132 90 L 132 92 L 126 92 L 125 90 Q 120 88 121 92 L 103 92 L 102 91 L 101 93 L 98 95 L 99 93 L 97 92 Q 95 97 99 96 L 99 172 L 98 173 L 100 178 L 103 177 L 106 178 L 143 178 L 144 179 Q 148 180 150 178 L 160 178 L 161 179 Q 165 180 167 178 L 180 179 L 182 176 Q 185 177 183 173 L 185 173 L 185 100 L 182 99 L 183 96 Q 179 94 182 93 Q 184 87 181 88 Z M 105 90 L 105 91 L 114 91 L 105 90 Z M 75 212 L 75 215 L 83 214 L 75 212 Z M 105 212 Q 104 215 108 214 Q 109 211 105 212 Z M 75 216 L 75 217 L 206 217 L 75 216 Z " /><path fill="rgb(255,255,255)" stroke="rgb(255,255,255)" stroke-width="1" opacity="1" d="M 234.5 66 L 239 66.5 L 234.5 67 L 234.5 66 Z " /><path fill="rgb(255,255,255)" stroke="rgb(255,255,255)" stroke-width="1" opacity="1" d="M 108.5 100 L 109.5 101 L 119.5 101 L 120.5 102 L 142.5 102 Q 143.8 104.3 148.5 103 L 149.5 102 L 170.5 102 L 174 101 L 174 167 L 109 167 L 109 111.5 Q 106.5 110 108 104.5 L 109 101.5 L 108.5 100 Z M 110 104 L 110 105 L 119 105 L 110 104 Z " /><path fill="rgb(255,255,255)" stroke="rgb(255,255,255)" stroke-width="1" opacity="1" d="M 109.5 176 L 143 176.5 L 109.5 177 L 109.5 176 Z " /><path fill="rgb(255,255,255)" stroke="rgb(255,255,255)" stroke-width="1" opacity="1" d="M 149.5 176 L 160 176.5 L 149.5 177 L 149.5 176 Z " /><path fill="rgb(255,255,255)" stroke="rgb(255,255,255)" stroke-width="1" opacity="1" d="M 166.5 176 L 171 176.5 L 166.5 177 L 166.5 176 Z " /><path fill="rgb(255,255,255)" stroke="rgb(255,255,255)" stroke-width="1" opacity="1" d="M 42.5 210 L 63 210.5 L 42.5 211 L 42.5 210 Z " /><path fill="rgb(255,255,255)" stroke="rgb(255,255,255)" stroke-width="1" opacity="1" d="M 217.5 210 L 225 210.5 L 217.5 211 L 217.5 210 Z " /><path fill="rgb(255,255,255)" stroke="rgb(255,255,255)" stroke-width="1" opacity="1" d="M 226.5 210 L 239 210.5 L 226.5 211 L 226.5 210 Z " /><path fill="rgb(255,255,255)" stroke="rgb(255,255,255)" stroke-width="1" opacity="1" d="M 43 213 L 63 213 L 63 233 L 44.5 233 L 44 231.5 L 43 230.5 L 43 213 Z " /><path fill="rgb(255,255,255)" stroke="rgb(255,255,255)" stroke-width="1" opacity="1" d="M 217 213 L 236 213 L 236 222.5 L 237 222.5 L 237.5 213 L 238 227.5 L 237 229.5 L 238 233 L 217 233 L 217 224 Q 224.5 226.5 222 219 L 217 219 L 217 213 Z " /><path fill="rgb(75,71,105)" stroke="rgb(75,71,105)" stroke-width="1" opacity="1" d="M 35.5 28 L 34.5 30 L 35.5 28 Z " /><path fill="rgb(75,71,105)" stroke="rgb(75,71,105)" stroke-width="1" opacity="1" d="M 244.5 28 L 245.5 30 L 244.5 28 Z " /><path fill="rgb(75,71,105)" stroke="rgb(75,71,105)" stroke-width="1" opacity="1" d="M 40.5 34 L 41 59 L 65 59 L 65 34.5 L 66 34.5 L 66 58.5 L 64.5 60 L 41.5 60 L 40 58.5 L 40.5 34 Z " /><path fill="rgb(75,71,105)" stroke="rgb(75,71,105)" stroke-width="1" opacity="1" d="M 214.5 34 L 215 59 L 239 59 L 239 34.5 L 240 34.5 L 240 58.5 L 238.5 60 L 215.5 60 L 214 58.5 L 214.5 34 Z " /><path fill="rgb(75,71,105)" stroke="rgb(75,71,105)" stroke-width="1" opacity="1" d="M 72.5 49 L 208 49.5 L 72.5 50 L 72.5 49 Z " /><path fill="rgb(75,71,105)" stroke="rgb(75,71,105)" stroke-width="1" opacity="1" d="M 71.5 63 L 69.5 66 L 56 65.5 L 69.5 65 L 71.5 63 Z " /><path fill="rgb(75,71,105)" stroke="rgb(75,71,105)" stroke-width="1" opacity="1" d="M 208.5 63 L 210.5 65 L 225 65.5 L 210.5 66 L 208.5 63 Z " /><path fill="rgb(75,71,105)" stroke="rgb(75,71,105)" stroke-width="1" opacity="1" d="M 36.5 65 L 50 65.5 L 36.5 66 L 36.5 65 Z " /><path fill="rgb(75,71,105)" stroke="rgb(75,71,105)" stroke-width="1" opacity="1" d="M 232.5 65 L 244 65.5 L 232 66 L 231.5 203 L 231 66.5 L 232.5 65 Z " /><path fill="rgb(75,71,105)" stroke="rgb(75,71,105)" stroke-width="1" opacity="1" d="M 102.5 93 L 179.5 93 L 181 94.5 L 179.5 94 L 102.5 94 L 102.5 93 Z " /><path fill="rgb(75,71,105)" stroke="rgb(75,71,105)" stroke-width="1" opacity="1" d="M 106.5 99 L 175 99.5 L 106.5 100 L 106.5 99 Z " /><path fill="rgb(75,71,105)" stroke="rgb(75,71,105)" stroke-width="1" opacity="1" d="M 181.5 99 L 182 169.5 L 181 169.5 L 181.5 99 Z " /><path fill="rgb(75,71,105)" stroke="rgb(75,71,105)" stroke-width="1" opacity="1" d="M 106.5 168 L 175 168.5 L 106.5 169 L 106.5 168 Z " /><path fill="rgb(75,71,105)" stroke="rgb(75,71,105)" stroke-width="1" opacity="1" d="M 100.5 173 L 101.5 174 L 179.5 174 L 181 173.5 L 179.5 175 L 101.5 175 L 100.5 173 Z " /><path fill="rgb(75,71,105)" stroke="rgb(75,71,105)" stroke-width="1" opacity="1" d="M 35.5 203 L 34.5 205 L 35.5 203 Z " /><path fill="rgb(75,71,105)" stroke="rgb(75,71,105)" stroke-width="1" opacity="1" d="M 244.5 203 L 245.5 205 L 244.5 203 Z " /><path fill="rgb(75,71,105)" stroke="rgb(75,71,105)" stroke-width="1" opacity="1" d="M 40.5 209 L 41 233.5 L 40 233.5 L 40.5 209 Z " /><path fill="rgb(75,71,105)" stroke="rgb(75,71,105)" stroke-width="1" opacity="1" d="M 65.5 209 L 66 233.5 L 65 233.5 L 65.5 209 Z " /><path fill="rgb(75,71,105)" stroke="rgb(75,71,105)" stroke-width="1" opacity="1" d="M 214.5 209 L 215 233.5 L 214 233.5 L 214.5 209 Z " /><path fill="rgb(75,71,105)" stroke="rgb(75,71,105)" stroke-width="1" opacity="1" d="M 239.5 209 L 240 233.5 L 239 233.5 L 239.5 209 Z " /><path fill="rgb(75,71,105)" stroke="rgb(75,71,105)" stroke-width="1" opacity="1" d="M 72.5 218 L 208 218.5 L 72.5 219 L 72.5 218 Z " /><path fill="rgb(75,71,105)" stroke="rgb(75,71,105)" stroke-width="1" opacity="1" d="M 36.5 240 L 70 240.5 L 36.5 241 L 36.5 240 Z " /><path fill="rgb(75,71,105)" stroke="rgb(75,71,105)" stroke-width="1" opacity="1" d="M 210.5 240 L 244 240.5 L 210.5 241 L 210.5 240 Z " /><path fill="rgb(30,24,72)" stroke="rgb(30,24,72)" stroke-width="1" opacity="1" d="M 36.5 28 L 69.5 28 L 71 29.5 L 72 31.5 L 72 43 L 207.5 43 L 208 42.5 L 208 31.5 L 210.5 28 L 243.5 28 L 246 30.5 L 246 63.5 L 244.5 65 L 232.5 65 L 231 66.5 L 231 202.5 L 231.5 203 L 243.5 203 L 246 205.5 L 246 238.5 L 244.5 240 L 209 240 L 208 237.5 L 208 225 L 72.5 225 L 72 225.5 L 72 237.5 L 71 240 L 35.5 240 L 34 238.5 L 34 205.5 L 36.5 203 L 49.5 203 L 50 202.5 L 50 65 L 35.5 65 L 34 63.5 L 34 30.5 L 36.5 28 Z M 40 34 L 40 59 L 42 60 L 65 60 L 66 59 L 66 34 L 40 34 Z M 214 34 L 214 59 L 216 60 L 239 60 L 240 59 L 240 34 L 214 34 Z M 72 49 L 72 63 L 70 65 L 56 65 L 56 203 L 57 203 L 70 203 L 72 207 L 72 219 L 73 219 L 208 219 L 208 206 L 211 203 L 225 203 L 225 203 L 225 65 L 211 65 L 208 63 L 208 50 L 208 49 L 72 49 Z M 40 209 L 40 234 L 66 234 L 66 209 L 40 209 Z M 214 209 L 214 234 L 240 234 L 240 209 L 214 209 Z " /><path fill="rgb(30,24,72)" stroke="rgb(30,24,72)" stroke-width="1" opacity="1" d="M 101.5 94 L 179.5 94 L 181 95.5 L 181 172.5 L 179.5 174 L 101.5 174 L 100 172.5 L 100 95.5 L 101.5 94 Z M 106 99 L 106 169 L 175 169 L 175 99 L 106 99 Z " /></svg>